# xmcd
#
# Track frame offsets: 
#        150
#        11902
#        24062
#        38369
#        52317
#        64176
#        76027
#        88815
#        98769
#        110986
#        123946
#        135905
#
# Disc length: 1987 seconds
#
# Revision: 0
# Processed by: cddbd v1.5.2PL0 Copyright (c) Steve Scherf et al.
# Submitted via: ExactAudioCopy v0.99pb4
#
DISCID=9107c10c
DTITLE=Joe Robinson - Midnight in Nasville
DYEAR=2008
DGENRE=Blues
TTITLE0=Strutting It
TTITLE1=Its Not Easy
TTITLE2=Misty
TTITLE3=Fleabites
TTITLE4=Daddy Longlicks
TTITLE5=Bergeson Fries (Feat. Tommy Emmanuel)
TTITLE6=Royal Flush
TTITLE7=Time Jumping
TTITLE8=Dizzy
TTITLE9=Fireflies
TTITLE10=Larry's Blues
TTITLE11=Midnight In Nashville
EXTD=
EXTT0=
EXTT1=
EXTT2=
EXTT3=
EXTT4=
EXTT5=
EXTT6=
EXTT7=
EXTT8=
EXTT9=
EXTT10=
EXTT11=
PLAYORDER=
